<?xml version="1.0" encoding="UTF-8"?>
<svg id="Layer_1" xmlns="http://www.w3.org/2000/svg" xmlns:xlink="http://www.w3.org/1999/xlink" viewBox="0 0 1715.27 2213.06">
  <defs>
    <style>
      .cls-1 {
        fill-rule: evenodd;
      }

      .cls-1, .cls-2, .cls-3 {
        fill: #627f6e;
      }

      .cls-4 {
        fill: url(#linear-gradient-2);
      }

      .cls-5 {
        fill: url(#linear-gradient);
      }

      .cls-6 {
        clip-path: url(#clippath-1);
      }

      .cls-7 {
        clip-path: url(#clippath-2);
      }

      .cls-8 {
        fill: none;
      }

      .cls-8, .cls-3 {
        clip-rule: evenodd;
      }

      .cls-9 {
        clip-path: url(#clippath);
      }
    </style>
    <clipPath id="clippath">
      <path class="cls-8" d="M656.82,483.54v412.04h85.37c86.14,0,247.93-5.69,321.43-48.93,54.48-32.04,64.2-94.86,64.2-146.16s-7.99-132.69-61.74-168.63c-64.84-43.36-245.35-48.32-323.88-48.32h-85.37M656.82,1255.65v467.55h85.37c85.56,0,192.24.59,276.47-11.96,33.49-4.99,71.34-13.91,99.33-30.65,30.32-18.12,51.3-43.57,66.56-71.6,19.96-36.68,28.19-75.67,28.19-115.78,0-43.59-8.17-88.16-32.8-127.11-20.52-32.46-49.44-56.82-87.83-74.87-.46-.22-.95-.44-1.4-.67-.47-.23-.93-.46-1.4-.69-25.21-12.65-53.76-20.39-82.54-25.07-57.12-9.29-131.1-9.16-189.25-9.16h-160.69ZM1450.85,1033.42c47.77,26.89,90.85,60.26,128.45,100.37,97.44,103.97,135.98,228.72,135.98,359,0,83.57-18.41,164.88-55.75,242.43-36.26,75.31-87.75,143.86-156.99,201.22-77.21,63.97-172.18,106.31-276.9,130.36-141.93,32.6-336.59,34.14-483.46,34.14-545.74,0-566.67,112.12-566.67-294.91V733.4l488.76-363.72,362.33-253.94c31.66,3.09,62.51,7.13,91.79,12.43,85.54,15.47,167.27,42.88,238.12,86.13,85.85,52.4,151.26,120.61,196.66,200.69,46.48,81.99,68.08,170.18,68.08,260.69,0,105.62-29.31,207.31-103.65,294.23-20.07,23.46-42.41,44.59-66.76,63.5Z"/>
    </clipPath>
    <linearGradient id="linear-gradient" x1="865.38" y1="1025.74" x2="405.49" y2="228.81" gradientUnits="userSpaceOnUse">
      <stop offset="0" stop-color="#50fd81"/>
      <stop offset="1" stop-color="#000"/>
    </linearGradient>
    <clipPath id="clippath-1">
      <path class="cls-3" d="M175.51,733.4v-245.85C175.51,0,119.92,105.8,742.18,105.8c88.95,0,190.28.75,284.41,9.93l-362.33,253.94-488.76,363.72Z"/>
    </clipPath>
    <clipPath id="clippath-2">
      <path class="cls-8" d="M1121.23,128.69c-16.27-35.24-74.14-45.2-134.17-31.78C809,136.73,214.94,487.57,82.39,635.43,16.83,708.57,0,769.23,23.08,819.64c94.64,206.67,350.95,96.22,472.34-9.9,79.39-69.41,155.09-161.19,228.48-266.66,106.06-152.43,203.74-451.19,397.32-414.4"/>
    </clipPath>
    <linearGradient id="linear-gradient-2" x1="536.89" y1="363.22" x2="639.8" y2="1194.61" gradientUnits="userSpaceOnUse">
      <stop offset="0" stop-color="#91ffa0"/>
      <stop offset="1" stop-color="#fefefe"/>
    </linearGradient>
  </defs>
  <g class="cls-9">
    <rect class="cls-5" x="175.51" y="115.73" width="1539.76" height="2097.33"/>
  </g>
  <g>
    <path class="cls-1" d="M175.51,733.4v-245.85C175.51,0,119.92,105.8,742.18,105.8c88.95,0,190.28.75,284.41,9.93l-362.33,253.94-488.76,363.72Z"/>
    <g class="cls-6">
      <rect class="cls-2" x="119.92" y="0" width="906.68" height="733.4"/>
    </g>
  </g>
  <g class="cls-7">
    <rect class="cls-4" x="0" y="83.48" width="1121.23" height="942.83"/>
  </g>
</svg>